<mxfile host="app.diagrams.net" modified="2024-05-09T15:19:16.867Z" agent="Mozilla/5.0 (Windows NT 10.0; Win64; x64) AppleWebKit/537.36 (KHTML, like Gecko) Chrome/124.0.0.0 Safari/537.36 Edg/124.0.0.0" etag="O_3ucSR8mGyDcLME47Z-" version="24.3.1" type="device">
  <diagram name="Page-1" id="h31YnyH4ZcefZMLSWykd">
    <mxGraphModel dx="1386" dy="797" grid="1" gridSize="10" guides="1" tooltips="1" connect="1" arrows="1" fold="1" page="1" pageScale="1" pageWidth="850" pageHeight="1100" math="0" shadow="0">
      <root>
        <mxCell id="0" />
        <mxCell id="1" parent="0" />
        <mxCell id="evXUSnuD0lAMoaGzojww-2" value="Doctor" style="shape=umlActor;verticalLabelPosition=bottom;verticalAlign=top;html=1;outlineConnect=0;" parent="1" vertex="1">
          <mxGeometry x="400" y="250" width="80" height="140" as="geometry" />
        </mxCell>
        <mxCell id="evXUSnuD0lAMoaGzojww-4" value="" style="endArrow=classic;html=1;rounded=0;entryX=0.097;entryY=0.85;entryDx=0;entryDy=0;entryPerimeter=0;" parent="1" target="evXUSnuD0lAMoaGzojww-5" edge="1">
          <mxGeometry width="50" height="50" relative="1" as="geometry">
            <mxPoint x="480" y="250" as="sourcePoint" />
            <mxPoint x="530" y="200" as="targetPoint" />
          </mxGeometry>
        </mxCell>
        <mxCell id="evXUSnuD0lAMoaGzojww-5" value="&lt;h2&gt;Search Patient&lt;/h2&gt;" style="ellipse;whiteSpace=wrap;html=1;" parent="1" vertex="1">
          <mxGeometry x="530" y="130" width="120" height="80" as="geometry" />
        </mxCell>
        <mxCell id="evXUSnuD0lAMoaGzojww-6" value="" style="endArrow=classic;html=1;rounded=0;entryX=0;entryY=0.5;entryDx=0;entryDy=0;" parent="1" target="evXUSnuD0lAMoaGzojww-7" edge="1">
          <mxGeometry width="50" height="50" relative="1" as="geometry">
            <mxPoint x="480" y="322" as="sourcePoint" />
            <mxPoint x="550" y="320" as="targetPoint" />
          </mxGeometry>
        </mxCell>
        <mxCell id="evXUSnuD0lAMoaGzojww-7" value="&lt;h2&gt;View All Prescription&lt;/h2&gt;" style="ellipse;whiteSpace=wrap;html=1;" parent="1" vertex="1">
          <mxGeometry x="560" y="280" width="140" height="80" as="geometry" />
        </mxCell>
        <mxCell id="evXUSnuD0lAMoaGzojww-8" value="&lt;h2&gt;Upcoming Appointment&lt;/h2&gt;" style="ellipse;whiteSpace=wrap;html=1;" parent="1" vertex="1">
          <mxGeometry x="160" y="200" width="140" height="80" as="geometry" />
        </mxCell>
        <mxCell id="evXUSnuD0lAMoaGzojww-9" value="&lt;h2&gt;Awards and Honors&lt;/h2&gt;" style="ellipse;whiteSpace=wrap;html=1;" parent="1" vertex="1">
          <mxGeometry x="370" y="90" width="140" height="80" as="geometry" />
        </mxCell>
        <mxCell id="evXUSnuD0lAMoaGzojww-10" value="" style="endArrow=classic;html=1;rounded=0;" parent="1" target="evXUSnuD0lAMoaGzojww-9" edge="1">
          <mxGeometry width="50" height="50" relative="1" as="geometry">
            <mxPoint x="440" y="232" as="sourcePoint" />
            <mxPoint x="492" y="180" as="targetPoint" />
          </mxGeometry>
        </mxCell>
        <mxCell id="evXUSnuD0lAMoaGzojww-11" value="&lt;h2&gt;Specialty&lt;/h2&gt;" style="ellipse;whiteSpace=wrap;html=1;" parent="1" vertex="1">
          <mxGeometry x="620" y="200" width="150" height="80" as="geometry" />
        </mxCell>
        <mxCell id="evXUSnuD0lAMoaGzojww-12" value="" style="endArrow=classic;html=1;rounded=0;entryX=-0.03;entryY=0.61;entryDx=0;entryDy=0;entryPerimeter=0;" parent="1" target="evXUSnuD0lAMoaGzojww-11" edge="1">
          <mxGeometry width="50" height="50" relative="1" as="geometry">
            <mxPoint x="488" y="270" as="sourcePoint" />
            <mxPoint x="550" y="218" as="targetPoint" />
          </mxGeometry>
        </mxCell>
        <mxCell id="evXUSnuD0lAMoaGzojww-13" value="&lt;h2&gt;Degree Details&lt;/h2&gt;" style="ellipse;whiteSpace=wrap;html=1;" parent="1" vertex="1">
          <mxGeometry x="210" y="110" width="150" height="80" as="geometry" />
        </mxCell>
        <mxCell id="evXUSnuD0lAMoaGzojww-14" value="" style="endArrow=classic;html=1;rounded=0;" parent="1" target="evXUSnuD0lAMoaGzojww-13" edge="1">
          <mxGeometry width="50" height="50" relative="1" as="geometry">
            <mxPoint x="400" y="240" as="sourcePoint" />
            <mxPoint x="380" y="170" as="targetPoint" />
          </mxGeometry>
        </mxCell>
        <mxCell id="evXUSnuD0lAMoaGzojww-15" value="" style="endArrow=classic;html=1;rounded=0;entryX=1;entryY=0.5;entryDx=0;entryDy=0;" parent="1" target="evXUSnuD0lAMoaGzojww-8" edge="1">
          <mxGeometry width="50" height="50" relative="1" as="geometry">
            <mxPoint x="390" y="290" as="sourcePoint" />
            <mxPoint x="330" y="220" as="targetPoint" />
          </mxGeometry>
        </mxCell>
        <mxCell id="evXUSnuD0lAMoaGzojww-16" value="&lt;h2&gt;Journals and Publications&lt;/h2&gt;" style="ellipse;whiteSpace=wrap;html=1;" parent="1" vertex="1">
          <mxGeometry x="160" y="290" width="140" height="80" as="geometry" />
        </mxCell>
        <mxCell id="evXUSnuD0lAMoaGzojww-17" value="" style="endArrow=classic;html=1;rounded=0;entryX=1;entryY=0.405;entryDx=0;entryDy=0;entryPerimeter=0;" parent="1" target="evXUSnuD0lAMoaGzojww-16" edge="1">
          <mxGeometry width="50" height="50" relative="1" as="geometry">
            <mxPoint x="410" y="320" as="sourcePoint" />
            <mxPoint x="320" y="280" as="targetPoint" />
          </mxGeometry>
        </mxCell>
        <mxCell id="evXUSnuD0lAMoaGzojww-18" value="" style="endArrow=classic;html=1;rounded=0;entryX=0;entryY=0;entryDx=0;entryDy=0;" parent="1" target="evXUSnuD0lAMoaGzojww-19" edge="1">
          <mxGeometry width="50" height="50" relative="1" as="geometry">
            <mxPoint x="480" y="352" as="sourcePoint" />
            <mxPoint x="560" y="380" as="targetPoint" />
          </mxGeometry>
        </mxCell>
        <mxCell id="evXUSnuD0lAMoaGzojww-19" value="&lt;h2&gt;Consultations Hours&amp;nbsp;&lt;/h2&gt;" style="ellipse;whiteSpace=wrap;html=1;" parent="1" vertex="1">
          <mxGeometry x="560" y="380" width="140" height="80" as="geometry" />
        </mxCell>
        <mxCell id="evXUSnuD0lAMoaGzojww-20" value="&lt;h2&gt;All Reviews&lt;/h2&gt;" style="ellipse;whiteSpace=wrap;html=1;" parent="1" vertex="1">
          <mxGeometry x="190" y="380" width="140" height="80" as="geometry" />
        </mxCell>
        <mxCell id="evXUSnuD0lAMoaGzojww-21" value="" style="endArrow=classic;html=1;rounded=0;entryX=0.911;entryY=0.13;entryDx=0;entryDy=0;entryPerimeter=0;" parent="1" target="evXUSnuD0lAMoaGzojww-20" edge="1">
          <mxGeometry width="50" height="50" relative="1" as="geometry">
            <mxPoint x="420" y="350" as="sourcePoint" />
            <mxPoint x="315" y="352" as="targetPoint" />
          </mxGeometry>
        </mxCell>
        <mxCell id="evXUSnuD0lAMoaGzojww-22" value="&lt;h1&gt;Actor as a Doctor&lt;/h1&gt;" style="text;html=1;align=center;verticalAlign=middle;resizable=0;points=[];autosize=1;strokeColor=none;fillColor=none;" parent="1" vertex="1">
          <mxGeometry x="330" y="450" width="220" height="70" as="geometry" />
        </mxCell>
      </root>
    </mxGraphModel>
  </diagram>
</mxfile>
